<svg width="50" height="50" viewBox="0 0 50 50" fill="none" xmlns="http://www.w3.org/2000/svg">
<rect width="50" height="50" rx="4" fill="#1E1E2C"/>
<g clip-path="url(#clip0_113_124)">
<path d="M17.1936 7.10938C15.7717 7.36914 14.466 8.08008 13.4885 9.13281C13.092 9.55664 12.4768 10.4385 12.3947 10.6914C12.3674 10.7734 12.2443 10.8555 12.0666 10.9033C11.9094 10.9443 11.5334 11.1016 11.2395 11.2588C9.74923 12.0312 8.79904 13.7266 8.89474 15.4424C8.95626 16.5361 9.38009 17.5205 10.1389 18.3203L10.508 18.71L10.5285 21.0752L10.5559 23.4404L10.7336 23.9121C11.0891 24.8281 11.6906 25.4912 12.552 25.9014L12.9758 26.0996V34.0498V42H23.9133H34.8508V39.9492V37.8984L35.008 37.8711C35.0901 37.8574 35.4797 37.7959 35.8693 37.7344C39.6975 37.1396 42.8147 34.125 43.676 30.1875C43.8811 29.251 43.9426 25.9629 43.7785 24.9102C43.2932 21.8613 41.0852 19.4346 38.0979 18.6758C37.6877 18.5732 37.216 18.5254 36.218 18.498L34.885 18.4502L34.8508 16.3652C34.8166 14.4648 34.7961 14.2393 34.6594 13.8359C34.133 12.25 32.7043 11.0264 31.0774 10.7598C30.7287 10.7051 30.6193 10.6572 30.51 10.5068C30.1955 10.0557 29.3752 9.2832 28.8283 8.91406C27.7961 8.22363 26.6477 7.88184 25.3488 7.875C24.4943 7.875 23.9611 7.96387 23.1203 8.24414L22.5051 8.44922L22.1565 8.20312C20.7893 7.21875 18.8957 6.80176 17.1936 7.10938ZM19.299 9.15332C19.8391 9.26953 20.6526 9.63184 21.0695 9.95312C21.2199 10.0693 21.5549 10.3633 21.801 10.6025L22.2522 11.0469L22.758 10.7188C23.4211 10.2881 24.1184 10.0215 24.7815 9.95312C26.6272 9.74805 28.2678 10.6094 29.1906 12.2637L29.4846 12.7969L30.1682 12.7832C30.6945 12.7764 30.9338 12.8037 31.1936 12.9062C31.6858 13.0908 32.0822 13.3984 32.3557 13.8018C32.7111 14.3145 32.8 14.6836 32.8 15.627V16.4336H26.2785H19.757L19.4699 17.0215C19.2717 17.4248 19.0735 17.7188 18.8 17.9922C18.0891 18.6963 17.385 18.9629 16.216 18.9629H15.5119L15.4914 21.0273C15.4709 23.2627 15.4641 23.3037 15.0676 23.7344C14.7053 24.1377 13.9192 24.2881 13.4133 24.0488C13.0988 23.8984 12.7297 23.4678 12.6408 23.1533C12.593 22.9893 12.5656 21.9023 12.5656 20.248V17.6025L12.176 17.3291C11.636 16.96 11.3762 16.6729 11.1574 16.2012C10.4465 14.6426 11.4992 12.9062 13.2492 12.7627C13.509 12.7422 13.7551 12.6875 13.7893 12.6465C13.8166 12.6055 13.926 12.3525 14.0285 12.0859C14.3498 11.2383 14.8557 10.541 15.5324 10.0283C16.633 9.20117 18.0002 8.87988 19.299 9.15332ZM32.8 27.166V35.8477H23.9133H15.0266V30.9736L15.0334 26.1064L15.5598 25.8535C16.2639 25.5186 16.7902 24.9922 17.1526 24.2607C17.4738 23.6045 17.5559 23.126 17.5559 21.8271V20.8906L17.8156 20.8428C18.2463 20.7607 19.0324 20.4053 19.5178 20.0635C20.0031 19.7217 20.6662 19.0518 20.885 18.6895L21.0012 18.4844H26.9006H32.8V27.166ZM37.5647 20.6719C39.5197 21.1367 41.0578 22.6338 41.632 24.6094C41.7824 25.1221 41.7893 25.2656 41.7893 27.2002C41.7893 28.6426 41.7619 29.374 41.7004 29.6611C41.4475 30.8096 40.9484 31.9443 40.3127 32.7852C39.5539 33.8037 38.3303 34.7607 37.1818 35.2393C36.5666 35.4922 35.4797 35.7793 35.1106 35.7793H34.844L34.8645 34.7744L34.885 33.7695L35.261 33.6943C37.3869 33.2637 39.0481 31.7051 39.6086 29.627C39.7795 28.9775 39.8274 25.9629 39.677 25.2998C39.4035 24.1172 38.5969 23.1875 37.4826 22.7773C37.1477 22.6543 36.8742 22.6201 35.9787 22.5928L34.885 22.5518L34.8645 21.54L34.844 20.5352H35.924C36.7649 20.5352 37.1272 20.5693 37.5647 20.6719ZM37.093 24.8691C37.2707 24.9854 37.4416 25.1904 37.551 25.4092C37.715 25.751 37.7219 25.792 37.7219 27.1729C37.7219 27.959 37.6877 28.7588 37.6467 28.957C37.4621 29.8457 36.7922 30.7959 36.0402 31.2334C35.76 31.3975 35.049 31.6777 34.9055 31.6777C34.8781 31.6777 34.8508 30.0918 34.8508 28.1504V24.6299L35.8283 24.6504C36.7785 24.6709 36.8195 24.6777 37.093 24.8691ZM32.8 38.9238V39.9492H23.9133H15.0266V38.9238V37.8984H23.9133H32.8V38.9238Z" fill="#FBF7FF"/>
</g>
<defs>
<clipPath id="clip0_113_124">
<rect width="35" height="36" fill="white" transform="translate(9 7)"/>
</clipPath>
</defs>
</svg>
