<svg width="50" height="50" viewBox="0 0 50 50" fill="none" xmlns="http://www.w3.org/2000/svg">
<rect width="50" height="50" rx="4" fill="#1E1E2C"/>
<g clip-path="url(#clip0_113_123)">
<path d="M12.7891 7.66309C12.3994 8.03223 12.0781 8.36036 12.0713 8.40137C12.0576 8.43555 13.3018 9.78907 14.8262 11.4092L17.5947 14.3486L14.792 14.3691C13.2471 14.376 11.9824 14.4102 11.9824 14.4375C11.9824 14.4648 14.7031 17.5273 18.0322 21.2529L24.0752 28.0205L24.082 33.9814V39.9492H21.1768H18.2715V40.9746V42H25.1074H31.9434V40.9746V39.9492H29.0381H26.1328V34.002V28.0547L29.0723 24.7529C30.6924 22.9414 32.0527 21.4307 32.1006 21.4033C32.1484 21.3623 32.3398 21.4307 32.6064 21.5811C33.2285 21.9365 33.8779 22.1758 34.6094 22.3262C35.5527 22.5244 37.0498 22.4697 37.9248 22.2168C38.7178 21.9844 39.2852 21.7178 39.9756 21.2529C40.584 20.8496 41.4795 19.9541 41.8623 19.3731C43.5918 16.7412 43.4619 13.4463 41.5273 11.0264C39.6885 8.72266 36.5508 7.79981 33.7891 8.74317C31.4854 9.5293 29.667 11.5391 29.1611 13.8496L29.0518 14.3828L24.7383 14.376H20.4248L17.2461 10.999C15.4961 9.13965 13.9375 7.47852 13.7803 7.30762L13.4932 6.99317L12.7891 7.66309ZM37.3096 10.5889C39.4014 11.1494 40.8916 13.0088 41.0215 15.21C41.1309 17.1035 39.9893 19.0449 38.2666 19.8926C36.9268 20.5488 35.1494 20.5762 33.9258 19.9541C33.7344 19.8584 33.584 19.749 33.5977 19.7217C33.6113 19.6875 34.6709 18.4844 35.9629 17.042L38.3008 14.417L34.7188 14.3828L31.1367 14.3486L31.2939 13.8496C31.8271 12.1748 33.4062 10.8076 35.1836 10.4863C35.6621 10.4043 36.8105 10.459 37.3096 10.5889ZM33.6045 16.584C33.5293 16.6729 33.126 17.1309 32.6953 17.6094L31.9229 18.4844H25.1143H18.3057L17.6221 17.7188C17.2461 17.2949 16.8359 16.8301 16.7061 16.6934L16.4805 16.4336H25.1143H33.7412L33.6045 16.584ZM30.0293 20.5693C30.0293 20.6445 25.1484 26.0723 25.1006 26.0586C25.0391 26.0381 20.1855 20.6104 20.1855 20.5625C20.1855 20.5488 22.4004 20.5352 25.1074 20.5352C27.8145 20.5352 30.0293 20.5488 30.0293 20.5693Z" fill="#FBF7FF"/>
</g>
<defs>
<clipPath id="clip0_113_123">
<rect width="35" height="35" fill="white" transform="translate(10 7)"/>
</clipPath>
</defs>
</svg>
