<svg width="50" height="50" viewBox="0 0 50 50" fill="none" xmlns="http://www.w3.org/2000/svg">
<rect width="50" height="50" rx="4" fill="#1E1E2C"/>
<path d="M11 23.9678C11 34.3311 10.9932 34.0371 11.376 35.3701C11.9639 37.3867 13.1533 39.1436 14.794 40.4287C15.4639 40.9482 15.7988 41.1602 16.4961 41.5088C17.6377 42.0693 18.7656 42.3906 20.0576 42.5137C21.0557 42.6025 26.5654 42.6025 27.5156 42.5068C29.3203 42.3291 31.0361 41.6729 32.5195 40.5859C33.1416 40.1348 34.3106 38.9111 34.7754 38.2207C35.7393 36.8057 36.3545 35.1104 36.4707 33.5381L36.5186 32.9434H37.5508C38.7334 32.9434 39.4922 32.834 40.415 32.5264C42.8486 31.7129 44.8584 29.6963 45.6104 27.2969C46.0068 26.0391 46.1162 24.5283 45.8975 23.2637C45.46 20.7481 43.7988 18.5264 41.4951 17.3643C40.2783 16.749 38.9658 16.4688 37.2842 16.4688H36.5664V15.4434V14.418H23.7832H11V23.9678ZM34.4473 24.4463C34.4473 29.2178 34.4199 32.6768 34.3789 33.1484C34.208 35.1035 33.4492 36.7441 32.0889 38.1113C30.7695 39.4375 29.1836 40.1895 27.2832 40.4014C26.8389 40.4492 25.417 40.4629 23.2568 40.4424C20.4063 40.4219 19.8457 40.3945 19.4082 40.2988C17.4805 39.8477 15.9424 38.8906 14.794 37.4209C14.0352 36.4502 13.5293 35.3633 13.2422 34.1123C13.0918 33.4629 13.0918 33.3877 13.0713 24.9932L13.044 16.5371H23.7422H34.4473V24.4463ZM39.2666 18.7861C41.3584 19.333 42.9649 20.8643 43.6484 22.9629C43.8262 23.5029 43.8399 23.626 43.8399 24.6719C43.8467 25.957 43.7783 26.3057 43.3272 27.2559C42.5684 28.8897 41.2764 30.0107 39.5059 30.585C38.9932 30.7559 38.7881 30.7764 37.749 30.8106L36.5664 30.8447V29.8399V28.8418H37.4756C38.5283 28.8418 38.9658 28.7529 39.7109 28.3838C40.4082 28.0352 41.1055 27.3379 41.4473 26.6543C41.7891 25.9502 41.8984 25.5059 41.8984 24.7402C41.8984 23.5098 41.5635 22.6963 40.7022 21.8281C39.7861 20.9053 38.9111 20.5772 37.3731 20.5703H36.5664V19.5723V18.5674L37.6465 18.6084C38.419 18.6357 38.877 18.6836 39.2666 18.7861ZM38.6035 22.8945C39.8887 23.4551 40.1826 25.1777 39.1641 26.169C38.7334 26.5859 38.2959 26.7227 37.3525 26.7227H36.5664V24.6992V22.6758L37.4072 22.7031C38.084 22.7305 38.3096 22.7647 38.6035 22.8945Z" fill="#FBF7FF"/>
</svg>
