<svg width="50" height="50" viewBox="0 0 50 50" fill="none" xmlns="http://www.w3.org/2000/svg">
<rect width="50" height="50" rx="4" fill="#1E1E2C"/>
<g clip-path="url(#clip0_113_132)">
<path d="M23.2852 7.10254C20.0108 7.56739 17.2217 8.7295 14.6992 10.6777C13.8994 11.2998 12.5391 12.6397 11.876 13.46C9.96878 15.8252 8.72464 18.5869 8.19143 21.6563C7.99319 22.832 7.9385 25.4229 8.09573 26.6191C8.38284 28.7998 8.94339 30.6318 9.88675 32.4775C10.7071 34.084 11.6436 35.3828 12.9561 36.7295C15.6631 39.5117 18.9102 41.1797 22.8682 41.8428C23.4698 41.9385 23.9961 41.9658 25.5 41.9658C27.5576 41.9658 28.1045 41.9043 29.7383 41.5078C35.9453 40.0039 41.0039 34.9453 42.5078 28.7383C42.9043 27.1045 42.9658 26.5576 42.9658 24.5C42.9658 22.4424 42.9043 21.8955 42.5078 20.2617C41.9541 17.9717 40.8194 15.6338 39.3223 13.6992C38.7002 12.8994 37.3604 11.5391 36.5401 10.876C34.1748 8.96875 31.4199 7.73145 28.3438 7.19141C27.2637 7.00684 24.3379 6.95215 23.2852 7.10254ZM27.3115 8.23731C30.4629 8.56543 33.8125 10.042 36.2393 12.1816L36.6289 12.5166L33.1973 15.9482L29.7656 19.3799L29.6768 19.0859C29.4307 18.2793 28.8155 17.5273 28.084 17.1514L27.6875 16.9463V13.7471C27.6875 10.6436 27.6807 10.5479 27.5508 10.418C27.4209 10.2881 27.3252 10.2813 25.5 10.2813C23.6748 10.2813 23.5791 10.2881 23.4492 10.418C23.3194 10.5479 23.3125 10.6436 23.3125 13.7471V16.9463L22.916 17.1514C22.376 17.4316 21.7813 18.04 21.5352 18.5664C21.125 19.4551 21.125 19.4277 21.125 23.9189V28.0205L17.3174 31.8281L13.503 35.6357L13.0928 35.1572C10.9805 32.6689 9.71585 29.8115 9.25784 26.5166C9.08694 25.2588 9.14846 22.873 9.38772 21.6289C10.2559 17.1035 12.7168 13.3779 16.4766 10.8623C19.628 8.75684 23.4356 7.83399 27.3115 8.23731ZM26.5938 11.9219V12.4688H25.5H24.4063V11.9219V11.375H25.5H26.5938V11.9219ZM38.6182 14.7588C39.6709 16.167 40.4776 17.7119 41.0108 19.3389C41.6123 21.1709 41.8379 22.5791 41.8379 24.5C41.8379 26.4277 41.5782 28.0205 40.9766 29.7842C38.9258 35.7588 33.71 39.9629 27.3457 40.7627C26.4639 40.8789 24.3653 40.8584 23.4492 40.7354C20.127 40.2773 17.1192 38.9102 14.6582 36.7432L14.3643 36.4902L17.7481 33.1064L21.125 29.7295V33.7832C21.125 38.2744 21.1114 38.1377 21.5762 38.4863L21.8291 38.6846L25.4043 38.7051C29.3828 38.7256 29.2871 38.7324 29.6426 38.2676L29.8408 38.0146L29.8614 29.4971L29.875 20.9795L33.6826 17.1787L37.4834 13.3711L37.8184 13.7607C38.0098 13.9727 38.3653 14.417 38.6182 14.7588ZM26.5938 15.5723C26.5938 16.6797 26.6143 17.6367 26.6348 17.6982C26.6621 17.7598 26.9287 17.9238 27.2364 18.0674C27.5645 18.2246 27.8926 18.4365 28.043 18.5938C28.3711 18.9355 28.6446 19.5439 28.6924 20.0293L28.7334 20.4121L27.2364 21.9092L25.7393 23.4063H23.9688H22.1983L22.2324 21.6768C22.2666 20.125 22.2871 19.9063 22.4307 19.4893C22.6494 18.8193 23.0459 18.3955 23.7637 18.0674C24.0713 17.9238 24.3379 17.7598 24.3653 17.6982C24.3858 17.6367 24.4063 16.6797 24.4063 15.5723V13.5625H25.5H26.5938V15.5723ZM28.7813 22.7568V23.4063H28.1182H27.4483L28.0977 22.7568C28.4531 22.4014 28.7539 22.1074 28.7608 22.1074C28.7744 22.1074 28.7813 22.4014 28.7813 22.7568ZM24.6114 24.5205C24.6114 24.5273 24.0713 25.0742 23.4151 25.7305L22.2188 26.9268V25.71V24.5H23.4151C24.0713 24.5 24.6114 24.5068 24.6114 24.5205ZM28.7813 27.7813V31.0625H25.5H22.2188V29.8525V28.6357L24.2832 26.5713L26.3545 24.5H27.5645H28.7813V27.7813ZM28.7813 34.8086C28.7813 36.7773 28.7608 37.4814 28.6992 37.543C28.583 37.6592 22.417 37.6592 22.3008 37.543C22.2393 37.4814 22.2188 36.7773 22.2188 34.8086V32.1563H25.5H28.7813V34.8086Z" fill="#FBF7FF"/>
</g>
<defs>
<clipPath id="clip0_113_132">
<rect width="35" height="35" fill="white" transform="translate(8 7)"/>
</clipPath>
</defs>
</svg>
