<svg width="50" height="50" viewBox="0 0 50 50" fill="none" xmlns="http://www.w3.org/2000/svg">
<rect width="50" height="50" rx="4" fill="#1E1E2C"/>
<g clip-path="url(#clip0_113_126)">
<path d="M31.4394 7.05469C31.3984 7.08203 30.6191 7.90234 29.7099 8.87988L28.0625 10.6572V13.5762V16.502H25.0615H22.0674L21.9785 15.9687C21.5615 13.3711 19.7363 11.3955 17.125 10.7119C16.6055 10.5752 16.2978 10.541 15.5869 10.5342C14.3838 10.5205 13.6728 10.6777 12.6611 11.1768C10.9932 12.0039 9.77635 13.4805 9.24999 15.3125C9.03807 16.0508 9.0244 17.7051 9.22264 18.4844C9.73534 20.4873 10.9795 22.0459 12.7158 22.8594C13.5088 23.2353 14.001 23.3789 14.7871 23.4678C15.1016 23.502 15.3682 23.543 15.3887 23.5566C15.4023 23.5771 15.6348 27.5898 15.9014 32.4707C16.1611 37.3516 16.3935 41.4189 16.4141 41.501C16.4892 41.8701 16.1406 41.8496 24.624 41.9385C30.5849 42.0068 32.54 42.0068 32.6699 41.9453C32.7656 41.9043 32.8613 41.7949 32.8818 41.7129C32.8955 41.624 33.1484 35.9912 33.4355 29.1895L33.9551 16.8164L33.7773 16.6592L33.5928 16.502H31.3027H29.0195V13.8154V11.1289L30.5166 9.51562C32.1435 7.75879 32.2324 7.64941 32.2324 7.44434C32.2324 7.12305 31.7197 6.87012 31.4394 7.05469ZM15.0742 13.6445V15.7842L13.5771 14.2871C12.75 13.46 12.0869 12.7627 12.1074 12.7285C12.1279 12.7012 12.3877 12.5234 12.6953 12.3389C13.3789 11.915 14.0898 11.6689 15.0264 11.5186C15.0537 11.5186 15.0742 12.4756 15.0742 13.6445ZM16.9541 11.6963C17.4531 11.8125 18.5058 12.3184 18.834 12.5986L19.0732 12.8037L18.4238 13.46C18.0683 13.8223 17.3848 14.4922 16.9062 14.9434L16.0312 15.7637V13.6445V11.5186L16.291 11.5596C16.4277 11.5801 16.7285 11.6416 16.9541 11.6963ZM12.8183 15.0322L14.2881 16.502H12.1826C10.1933 16.502 10.084 16.4951 10.084 16.3789C10.084 16.1396 10.3574 15.1826 10.5351 14.7998C10.7197 14.3828 11.2324 13.5625 11.3076 13.5625C11.3281 13.5625 12.0117 14.2256 12.8183 15.0322ZM20.1601 14.0205C20.625 14.7383 21.0146 15.8047 21.0215 16.3447V16.502H18.9228H16.8174L18.2871 15.0322C19.0937 14.2256 19.7773 13.5625 19.8115 13.5625C19.8389 13.5625 19.9961 13.7676 20.1601 14.0205ZM12.8183 18.9971C12.0117 19.8037 11.3281 20.4668 11.3076 20.4668C11.2324 20.4668 10.7197 19.6465 10.5351 19.2295C10.3574 18.8467 10.084 17.8896 10.084 17.6504C10.084 17.5342 10.1933 17.5273 12.1826 17.5273H14.2881L12.8183 18.9971ZM32.916 17.7461C32.916 17.8691 32.7314 22.2646 32.5058 27.5078C32.2803 32.751 32.0957 37.1465 32.0957 37.2627V37.4883H24.6514H17.207L17.166 36.9961C17.1318 36.5654 16.0996 17.8213 16.0996 17.6094C16.0996 17.5478 18.1435 17.5273 24.5078 17.5273H32.916V17.7461ZM15.2451 20.3848C15.3135 21.5264 15.3408 22.4766 15.3203 22.4971C15.2383 22.5859 14.2402 22.3809 13.6523 22.1553C13.3242 22.0322 12.8252 21.7861 12.5517 21.6016L12.0527 21.2666L13.5771 19.7422C14.418 18.9014 15.1152 18.2314 15.1221 18.2588C15.1289 18.293 15.1836 19.2432 15.2451 20.3848ZM31.9863 39.7236C31.959 40.4346 31.9385 41.0156 31.9316 41.0225C31.8974 41.0703 17.4531 40.8516 17.4053 40.7969C17.3711 40.7627 17.3232 40.2227 17.2959 39.5869L17.248 38.4453H24.6445H32.0342L31.9863 39.7236Z" fill="#FBF7FF"/>
<path d="M20.6318 21.376C19.0391 22.9688 18.9023 23.1191 18.9023 23.3379C18.9023 23.5566 19.0391 23.707 20.6318 25.2998C22.2246 26.8994 22.375 27.0293 22.5938 27.0293C22.8193 27.0293 22.9629 26.8994 24.5625 25.2998C26.1553 23.707 26.2852 23.5566 26.2852 23.3379C26.2852 23.1123 26.1553 22.9688 24.5557 21.3691C22.9629 19.7832 22.8125 19.6465 22.5938 19.6465C22.375 19.6465 22.2246 19.7832 20.6318 21.376ZM23.8584 22.1074L25.0889 23.3379L23.8379 24.5889L22.5938 25.833L21.3496 24.5889L20.0986 23.3379L21.3291 22.1074C22.0059 21.4307 22.5732 20.877 22.5938 20.877C22.6143 20.877 23.1816 21.4307 23.8584 22.1074Z" fill="#FBF7FF"/>
<path d="M25.8955 26.5713C24.3096 28.1572 24.166 28.3145 24.166 28.5332C24.166 28.7451 24.3096 28.9092 25.8887 30.4951C27.4951 32.1016 27.6318 32.2246 27.8574 32.2246C28.083 32.2246 28.2197 32.1016 29.8262 30.4951C31.4121 28.9023 31.5488 28.752 31.5488 28.5332C31.5488 28.3145 31.4121 28.1641 29.8193 26.5713C28.2266 24.9785 28.0762 24.8418 27.8574 24.8418C27.6387 24.8418 27.4883 24.9785 25.8955 26.5713ZM29.1221 27.3027L30.3525 28.5332L29.1016 29.7842L27.8574 31.0283L26.6133 29.7842L25.3623 28.5332L26.5928 27.3027C27.2695 26.626 27.8369 26.0723 27.8574 26.0723C27.8779 26.0723 28.4453 26.626 29.1221 27.3027Z" fill="#FBF7FF"/>
<path d="M19.1963 29.6475C17.5967 31.2402 17.4668 31.3906 17.4668 31.6094C17.4668 31.835 17.5967 31.9785 19.2031 33.585C20.748 35.1299 20.9668 35.3213 21.1582 35.3213C21.3496 35.3213 21.5752 35.1299 23.1133 33.585C25.1025 31.5889 25.0684 31.6504 24.5625 31.1104C24.3984 30.9463 23.6055 30.1602 22.792 29.3604C21.5615 28.1641 21.2812 27.918 21.1172 27.918C20.9531 27.918 20.6455 28.1914 19.1963 29.6475ZM22.3887 32.874L21.1582 34.1045L19.9141 32.8604L18.6631 31.6094L19.8936 30.3789L21.124 29.1484L22.3682 30.3926L23.6191 31.6436L22.3887 32.874Z" fill="#FBF7FF"/>
</g>
<defs>
<clipPath id="clip0_113_126">
<rect width="35" height="35" fill="white" transform="translate(4 7)"/>
</clipPath>
</defs>
</svg>
