<svg width="50" height="50" viewBox="0 0 50 50" fill="none" xmlns="http://www.w3.org/2000/svg">
<rect width="50" height="50" rx="4" fill="#1E1E2C"/>
<path d="M26.8808 7.13672C26.7578 7.21191 26.6142 7.37598 26.5527 7.49219C26.498 7.61523 26.1972 8.81152 25.8828 10.1445L25.3154 12.5713L21.3916 12.6055C16.9824 12.6465 17.2285 12.6123 16.9482 13.1592C16.7841 13.4873 16.7841 13.6172 16.9482 14.3281C17.2558 15.6406 17.29 16.9941 17.0576 18.4844C16.9345 19.2568 16.9072 19.373 16.4424 21.3555C15.916 23.543 15.8408 24.2129 15.8818 25.9697C15.9091 27.0566 15.9502 27.5625 16.0595 28.0684C16.6133 30.625 17.8779 32.375 19.9287 33.4004C20.708 33.7969 21.5966 34.0361 22.9912 34.2412L23.2441 34.2822V37.1123V39.9492H21.1797C19.2314 39.9492 19.0947 39.9561 18.8828 40.0859C18.2265 40.4893 18.2265 41.46 18.8828 41.8633C19.1015 41.9932 19.2383 42 24.3037 42C29.3965 42 29.5058 42 29.7246 41.8633C29.9638 41.7129 30.2168 41.2617 30.2168 40.9746C30.2168 40.6875 29.9638 40.2363 29.7246 40.0859C29.5127 39.9561 29.3828 39.9492 27.4345 39.9492H25.3633V37.1123V34.2754L25.5205 34.248C25.6025 34.2275 25.917 34.1797 26.2177 34.1387C27.5371 33.9404 28.8974 33.373 29.8476 32.6143C31.7549 31.0898 32.7256 28.4785 32.5888 25.2178C32.5273 23.9121 32.4316 23.2627 32.0078 21.3213C31.5703 19.3525 31.4746 18.792 31.3789 17.7051C31.29 16.6455 31.3789 15.5039 31.625 14.5332C31.8232 13.7334 31.83 13.3916 31.6523 13.1045C31.3789 12.6533 31.3379 12.6465 29.3281 12.6055L27.5029 12.5713L27.872 10.999C28.0703 10.1309 28.2412 9.40625 28.2549 9.38574C28.2617 9.3584 29.5468 9.69336 31.1054 10.124C34.1543 10.958 34.3183 10.9854 34.7353 10.6846C35.289 10.2949 35.2754 9.32422 34.7148 8.95508C34.455 8.78418 27.8105 7 27.4414 7C27.2295 7 27.0244 7.04785 26.8808 7.13672ZM24.8027 14.8066C24.7822 14.8545 24.6523 15.4082 24.5088 16.0371L24.2422 17.1855H21.8086H19.3681L19.3271 16.208C19.2998 15.6748 19.2588 15.1211 19.2383 14.9775L19.1904 14.7246H22.0136C24.2353 14.7246 24.8232 14.7451 24.8027 14.8066ZM29.3691 14.8955C29.3213 15.0801 29.1982 16.5771 29.1914 16.96V17.1855H27.8242C26.9765 17.1855 26.457 17.1582 26.457 17.1172C26.457 17.0488 26.9082 15.0732 26.9765 14.8408C27.0107 14.7383 27.1269 14.7246 28.2138 14.7246H29.4101L29.3691 14.8955ZM29.4853 19.6807C29.5127 19.8652 29.6972 20.7266 29.8886 21.5947C30.3398 23.6592 30.415 24.1445 30.4629 25.2861C30.5381 26.9473 30.2304 28.5332 29.622 29.627C29.4785 29.8867 29.1435 30.3037 28.8222 30.625C28.3642 31.0898 28.1591 31.2334 27.6191 31.4932C27.2636 31.6641 26.6963 31.876 26.3545 31.9648C25.7939 32.1084 25.5957 32.1221 24.2353 32.1152C22.6152 32.1152 22.2529 32.0537 21.2617 31.6504C19.5459 30.96 18.4726 29.4971 18.0761 27.3164C17.9394 26.5439 17.9326 24.8213 18.0761 23.9189C18.1308 23.543 18.3427 22.5244 18.5547 21.6631C18.7597 20.7949 18.9648 19.9131 19.0058 19.6943L19.081 19.3047L24.2558 19.3184L29.4306 19.3389L29.4853 19.6807Z" fill="#FBF7FF"/>
</svg>
