<svg width="50" height="50" viewBox="0 0 50 50" fill="none" xmlns="http://www.w3.org/2000/svg">
<rect width="50" height="50" rx="4" fill="#1E1E2C"/>
<path d="M31.1465 7.0752C30.7637 7.16406 30.1006 7.51953 29.7246 7.83398C29.3213 8.16895 28.8906 8.81152 28.7334 9.29688C28.6719 9.50195 28.5967 9.66602 28.5625 9.66602C28.5352 9.66602 28.5078 9.63867 28.5078 9.61133C28.5078 9.57715 28.3369 9.36523 28.125 9.12598C26.9492 7.82715 25.2197 7.24609 23.5039 7.57422C21.5625 7.9502 20.0518 9.41309 19.5938 11.375L19.4502 11.9971L18.8965 12.1885C17.2832 12.7422 16.1279 14.0273 15.7109 15.7227L15.5674 16.2969H14.8906C14.2549 16.2969 14.2207 16.3037 14.2207 16.4404C14.2207 16.6113 17.2217 41.6309 17.2695 41.8428L17.2969 42H24.4404H31.5771L31.6182 41.7744C31.6729 41.46 34.6602 16.5635 34.6602 16.4199C34.6602 16.3105 34.5918 16.2969 33.9834 16.2969C33.2656 16.2969 33.2246 16.2764 33.2246 15.9414C33.2246 15.8662 33.1426 15.5723 33.0469 15.2852C32.7051 14.2529 31.9258 13.248 31.0508 12.708L30.627 12.4482V11.4639C30.627 10.3291 30.6953 9.9873 30.9893 9.63184C31.3994 9.12598 31.4404 9.11914 34.2705 9.11914H36.7793V8.05957V7L34.0996 7.00684C32.623 7.01367 31.29 7.04102 31.1465 7.0752ZM24.9668 9.67285C26.0264 9.89844 27.0312 10.8623 27.1816 11.7988C27.2227 12.0381 27.2227 12.0381 26.8945 12.1201C26.2998 12.2705 25.5 12.7422 24.9531 13.2617L24.4404 13.7539L23.9209 13.2549C23.3809 12.7422 22.4238 12.1816 21.9043 12.0859C21.665 12.0449 21.6582 12.0312 21.6992 11.7988C21.8018 11.1357 22.4785 10.2744 23.1416 9.94629C23.7842 9.625 24.3447 9.54297 24.9668 9.67285ZM21.7266 14.3213C22.458 14.6768 23.0596 15.3877 23.2783 16.1396L23.3193 16.2969H20.5508C18.377 16.2969 17.7754 16.2764 17.7754 16.208C17.7754 16.167 17.8643 15.9346 17.9736 15.7021C18.3223 14.9639 18.9033 14.4512 19.7236 14.1572C20.2773 13.959 21.1387 14.0273 21.7266 14.3213ZM29.4922 14.3008C30.1006 14.5879 30.5723 15.0459 30.8662 15.6338C30.9961 15.8936 31.1055 16.1533 31.1055 16.2012C31.1055 16.2832 30.6338 16.2969 28.3301 16.2969H25.5615L25.6025 16.1396C25.8076 15.4355 26.4229 14.6768 27.0586 14.3555C27.5645 14.1025 27.8516 14.041 28.4873 14.0684C28.9385 14.0889 29.1367 14.1367 29.4922 14.3008ZM32.2676 18.4844C32.2676 18.5938 31.9189 21.3828 31.9053 21.3965C31.8984 21.4033 31.6592 21.3281 31.3789 21.2324C30.9277 21.0752 30.7568 21.0547 30.0117 21.0547C29.2529 21.0547 29.0957 21.0752 28.6104 21.2393C27.7969 21.5264 27.3252 21.8477 26.5117 22.6748C25.5752 23.6113 25.2539 23.7822 24.4062 23.7822C23.5996 23.7754 23.3193 23.6318 22.458 22.7568C21.7061 21.998 21.3369 21.7246 20.6875 21.417C19.6416 20.9248 18.3086 20.8906 17.2148 21.3213C17.0713 21.376 16.9551 21.417 16.9551 21.4033C16.9551 21.3965 16.8799 20.7607 16.7842 19.9883C16.6885 19.2158 16.6133 18.5459 16.6133 18.498C16.6133 18.4365 18.2266 18.416 24.4404 18.416C29.6289 18.416 32.2676 18.4365 32.2676 18.4844ZM19.8262 23.3857C20.0859 23.5088 20.4414 23.8096 20.9609 24.3223C22.1504 25.5186 22.8682 25.8672 24.2354 25.9219C24.8643 25.9424 25.1582 25.9219 25.5 25.833C26.4639 25.5869 27.2158 25.0947 28.084 24.1582C28.7539 23.4268 29.2666 23.167 30.0117 23.167C30.4561 23.167 30.5928 23.2012 30.9756 23.3857C31.2217 23.5088 31.4678 23.6592 31.5293 23.7275C31.6182 23.8369 31.5361 24.6299 30.668 31.8486L29.7041 39.8467L24.4404 39.8672L19.1768 39.8809L18.2129 31.8691C17.5293 26.2021 17.2695 23.8232 17.3174 23.7617C17.4336 23.6113 17.9873 23.3174 18.3154 23.2217C18.7598 23.0986 19.375 23.167 19.8262 23.3857Z" fill="#FBF7FF"/>
</svg>
