<svg width="50" height="50" viewBox="0 0 50 50" fill="none" xmlns="http://www.w3.org/2000/svg">
<rect width="50" height="50" rx="4" fill="#1E1E2C"/>
<path d="M18.4502 23.6475C18.334 23.7568 18.2793 23.8867 18.2793 24.0371C18.2793 24.7617 19.4551 41.1406 19.5098 41.25C19.5508 41.3252 19.6396 41.4141 19.7148 41.4551C19.7969 41.4961 21.4648 41.5234 24.5342 41.5234H29.2236L29.3877 41.3525C29.4834 41.2637 29.5586 41.1338 29.5586 41.0654C29.5586 40.9971 29.5859 40.6211 29.627 40.2246C29.6611 39.8281 29.8662 36.9365 30.0713 33.7988C30.2764 30.6611 30.5088 27.209 30.584 26.1357C30.7549 23.7158 30.7549 23.8457 30.5498 23.6475L30.3857 23.4766H24.5H18.6143L18.4502 23.6475ZM29.5518 24.7891C29.5518 24.9121 29.3877 27.3525 29.1895 30.2031L28.834 35.3916L28.6494 35.5488C27.7881 36.2871 25.9561 36.875 24.5 36.875C23.0439 36.875 21.2119 36.2871 20.3506 35.5488L20.166 35.3916L19.8105 30.2031C19.6123 27.3525 19.4482 24.9121 19.4482 24.7891L19.4414 24.5703H24.5H29.5586L29.5518 24.7891ZM22.415 37.7432C23.1123 37.9209 23.2627 37.9346 24.4658 37.9346C26.127 37.9346 26.9883 37.7568 28.2119 37.1416L28.7451 36.875L28.7109 37.2305C28.6904 37.4287 28.6357 38.1328 28.6016 38.7891C28.5605 39.4453 28.5127 40.0879 28.4922 40.2041L28.458 40.4297H24.5H20.542L20.5078 40.2041C20.4873 40.0879 20.4395 39.4453 20.3984 38.7891C20.3574 38.1328 20.3096 37.4287 20.2891 37.2373L20.248 36.875L20.9521 37.21C21.3418 37.3945 22.0049 37.6338 22.415 37.7432Z" fill="#FBF7FF"/>
<path d="M27.3438 25.5684C27.2822 25.623 27.2207 25.7393 27.2002 25.8213C27.1797 25.9033 27.043 27.6602 26.8926 29.7314C26.6465 33.1357 26.6328 33.498 26.7285 33.6484C26.9336 33.956 27.3711 33.9971 27.6172 33.7236C27.7266 33.6074 27.7744 33.1152 28 30.0527C28.3008 25.8828 28.3076 25.7256 28.1367 25.5752C27.9727 25.4248 27.4873 25.4248 27.3438 25.5684Z" fill="#FBF7FF"/>
</svg>
