<svg width="50" height="50" viewBox="0 0 50 50" fill="none" xmlns="http://www.w3.org/2000/svg">
<rect width="50" height="50" rx="4" fill="#1E1E2C"/>
<path d="M25.3545 7.08203C25.3203 7.17773 24.0215 12.9199 24.0215 12.9814C24.0215 13.002 22.21 13.0156 19.9883 13.0156H15.9551V15.0664V17.1172H13.9043H11.8535V20.2275V23.3379H12.9678H14.082L15.4355 32.4844C16.1807 37.5088 16.8027 41.7061 16.8232 41.8154L16.8643 42L24.5205 41.9863L32.1836 41.9658L33.5645 32.6689C34.3301 27.5557 34.9521 23.3652 34.9521 23.3516C34.959 23.3447 35.4512 23.3379 36.0527 23.3379H37.1465V20.2275V17.1172H35.0957H33.0449V15.0664V13.0156H29.627C26.9336 13.0156 26.209 12.9951 26.209 12.9268C26.2158 12.8857 26.4072 11.9971 26.6465 10.9648L27.0771 9.08496L30.0576 9.06445L33.0449 9.05078V8.02539V7H29.2168C26.2158 7 25.375 7.02051 25.3545 7.08203ZM30.9258 16.126V17.1172H24.5H18.0742V16.126V15.1348H24.5H30.9258V16.126ZM35.0273 20.2275V21.2188H24.5H13.9727V20.2275V19.2363H24.5H35.0273V20.2275ZM32.7715 23.4541C32.7646 23.5225 32.2178 27.2549 31.5547 31.7461L30.3379 39.915L24.5205 39.9355L18.7031 39.9492L18.6279 39.4912C18.5869 39.2314 18.0469 35.5947 17.4248 31.4043C16.8027 27.2139 16.2832 23.6797 16.2627 23.5566L16.2217 23.3379H24.5C32.334 23.3379 32.7715 23.3447 32.7715 23.4541Z" fill="#FBF7FF"/>
</svg>
